<mxfile host="app.diagrams.net" modified="2022-02-16T19:17:51.733Z" agent="5.0 (Windows NT 10.0; Win64; x64) AppleWebKit/537.36 (KHTML, like Gecko) Chrome/98.0.4758.102 Safari/537.36" etag="5c4oICA5i_2rV5NcXMSb" version="16.5.6" type="github">
  <diagram id="JSSCa7bkJR9PmikTlj4o" name="Page-1">
    <mxGraphModel dx="2333" dy="1881" grid="1" gridSize="10" guides="1" tooltips="1" connect="1" arrows="1" fold="1" page="1" pageScale="1" pageWidth="850" pageHeight="1100" math="0" shadow="0">
      <root>
        <mxCell id="0" />
        <mxCell id="1" parent="0" />
        <mxCell id="2QfLTyrHY2M2lkCo5Ux--4" value="" style="endArrow=none;dashed=1;html=1;rounded=0;startArrow=none;" parent="1" edge="1" source="2QfLTyrHY2M2lkCo5Ux--3">
          <mxGeometry width="50" height="50" relative="1" as="geometry">
            <mxPoint x="439.5" y="410" as="sourcePoint" />
            <mxPoint x="425" y="-280" as="targetPoint" />
          </mxGeometry>
        </mxCell>
        <mxCell id="J24ZNAqXqzgIBJFLbZun-23" value="" style="endArrow=none;dashed=1;html=1;rounded=0;" edge="1" parent="1" target="2QfLTyrHY2M2lkCo5Ux--3">
          <mxGeometry width="50" height="50" relative="1" as="geometry">
            <mxPoint x="425" y="670" as="sourcePoint" />
            <mxPoint x="439.5" y="90" as="targetPoint" />
          </mxGeometry>
        </mxCell>
        <mxCell id="J24ZNAqXqzgIBJFLbZun-10" value="" style="edgeStyle=orthogonalEdgeStyle;rounded=0;orthogonalLoop=1;jettySize=auto;html=1;entryX=0;entryY=0.5;entryDx=0;entryDy=0;startArrow=none;exitX=1;exitY=0.75;exitDx=0;exitDy=0;" edge="1" parent="1" source="2QfLTyrHY2M2lkCo5Ux--28" target="J24ZNAqXqzgIBJFLbZun-6">
          <mxGeometry relative="1" as="geometry">
            <mxPoint x="40" y="303" as="sourcePoint" />
            <Array as="points">
              <mxPoint x="60" y="230" />
              <mxPoint x="60" y="360" />
            </Array>
          </mxGeometry>
        </mxCell>
        <mxCell id="J24ZNAqXqzgIBJFLbZun-17" style="edgeStyle=orthogonalEdgeStyle;rounded=0;orthogonalLoop=1;jettySize=auto;html=1;exitX=0.5;exitY=1;exitDx=0;exitDy=0;entryX=0;entryY=0.5;entryDx=0;entryDy=0;" edge="1" parent="1" source="J24ZNAqXqzgIBJFLbZun-12" target="J24ZNAqXqzgIBJFLbZun-16">
          <mxGeometry relative="1" as="geometry" />
        </mxCell>
        <mxCell id="J24ZNAqXqzgIBJFLbZun-44" style="edgeStyle=orthogonalEdgeStyle;rounded=0;orthogonalLoop=1;jettySize=auto;html=1;exitX=0.455;exitY=-0.024;exitDx=0;exitDy=0;entryX=0;entryY=0.5;entryDx=0;entryDy=0;exitPerimeter=0;" edge="1" parent="1" source="2QfLTyrHY2M2lkCo5Ux--1" target="J24ZNAqXqzgIBJFLbZun-36">
          <mxGeometry relative="1" as="geometry">
            <Array as="points">
              <mxPoint x="-68" y="-5" />
            </Array>
          </mxGeometry>
        </mxCell>
        <mxCell id="2QfLTyrHY2M2lkCo5Ux--1" value="Internet Host&lt;br&gt;IP: 10.10.0.40" style="rounded=0;whiteSpace=wrap;html=1;fillColor=#dae8fc;strokeColor=#6c8ebf;" parent="1" vertex="1">
          <mxGeometry x="-150" y="220" width="180" height="50" as="geometry" />
        </mxCell>
        <mxCell id="2QfLTyrHY2M2lkCo5Ux--2" value="Tools" style="text;html=1;align=center;verticalAlign=middle;resizable=0;points=[];autosize=1;strokeColor=none;fillColor=none;" parent="1" vertex="1">
          <mxGeometry x="-140" y="190" width="40" height="20" as="geometry" />
        </mxCell>
        <mxCell id="2QfLTyrHY2M2lkCo5Ux--5" value="EXTERNAL" style="text;html=1;align=center;verticalAlign=middle;resizable=0;points=[];autosize=1;strokeColor=none;fillColor=none;" parent="1" vertex="1">
          <mxGeometry x="170" y="-250" width="80" height="20" as="geometry" />
        </mxCell>
        <mxCell id="2QfLTyrHY2M2lkCo5Ux--6" value="INTERNAL" style="text;html=1;align=center;verticalAlign=middle;resizable=0;points=[];autosize=1;strokeColor=none;fillColor=none;" parent="1" vertex="1">
          <mxGeometry x="605" y="-250" width="70" height="20" as="geometry" />
        </mxCell>
        <mxCell id="2QfLTyrHY2M2lkCo5Ux--7" value="T4: Pineland&lt;br&gt;IP: 10.50.21.23" style="rounded=0;whiteSpace=wrap;html=1;fillColor=#f8cecc;strokeColor=#b85450;" parent="1" vertex="1">
          <mxGeometry x="785" y="215" width="120" height="60" as="geometry" />
        </mxCell>
        <mxCell id="2QfLTyrHY2M2lkCo5Ux--8" value="ATLANTICA SERVER:&lt;br&gt;10.2.0.3" style="rounded=0;whiteSpace=wrap;html=1;fillColor=#fff2cc;strokeColor=#d6b656;" parent="1" vertex="1">
          <mxGeometry x="1020" y="215" width="120" height="60" as="geometry" />
        </mxCell>
        <mxCell id="2QfLTyrHY2M2lkCo5Ux--11" value="Access" style="text;html=1;align=center;verticalAlign=middle;resizable=0;points=[];autosize=1;strokeColor=none;fillColor=none;" parent="1" vertex="1">
          <mxGeometry x="820" y="180" width="50" height="20" as="geometry" />
        </mxCell>
        <mxCell id="2QfLTyrHY2M2lkCo5Ux--13" value="" style="endArrow=classic;html=1;rounded=0;exitX=1;exitY=0.5;exitDx=0;exitDy=0;" parent="1" source="2QfLTyrHY2M2lkCo5Ux--7" target="2QfLTyrHY2M2lkCo5Ux--8" edge="1">
          <mxGeometry width="50" height="50" relative="1" as="geometry">
            <mxPoint x="400" y="220" as="sourcePoint" />
            <mxPoint x="450" y="170" as="targetPoint" />
          </mxGeometry>
        </mxCell>
        <mxCell id="2QfLTyrHY2M2lkCo5Ux--18" value="22" style="whiteSpace=wrap;html=1;aspect=fixed;fillColor=#ffe6cc;strokeColor=#d79b00;" parent="1" vertex="1">
          <mxGeometry x="770" y="270" width="40" height="40" as="geometry" />
        </mxCell>
        <mxCell id="J24ZNAqXqzgIBJFLbZun-22" style="edgeStyle=orthogonalEdgeStyle;rounded=0;orthogonalLoop=1;jettySize=auto;html=1;exitX=0;exitY=0.5;exitDx=0;exitDy=0;entryX=1;entryY=0.5;entryDx=0;entryDy=0;" edge="1" parent="1" source="2QfLTyrHY2M2lkCo5Ux--14" target="2QfLTyrHY2M2lkCo5Ux--17">
          <mxGeometry relative="1" as="geometry" />
        </mxCell>
        <mxCell id="J24ZNAqXqzgIBJFLbZun-31" style="edgeStyle=orthogonalEdgeStyle;rounded=0;orthogonalLoop=1;jettySize=auto;html=1;exitX=0.75;exitY=1;exitDx=0;exitDy=0;entryX=0;entryY=0.5;entryDx=0;entryDy=0;" edge="1" parent="1" source="2QfLTyrHY2M2lkCo5Ux--14" target="2QfLTyrHY2M2lkCo5Ux--18">
          <mxGeometry relative="1" as="geometry">
            <Array as="points">
              <mxPoint x="712" y="290" />
            </Array>
          </mxGeometry>
        </mxCell>
        <mxCell id="2QfLTyrHY2M2lkCo5Ux--14" value="Telnet into T4 then&lt;br&gt;ssh -R 31101:localhost:22 net3_student11@10.3.0.10 -NT" style="shape=process;whiteSpace=wrap;html=1;backgroundOutline=1;align=left;" parent="1" vertex="1">
          <mxGeometry x="547" y="215" width="220" height="60" as="geometry" />
        </mxCell>
        <mxCell id="2QfLTyrHY2M2lkCo5Ux--21" value="1" style="ellipse;whiteSpace=wrap;html=1;aspect=fixed;fillColor=#d5e8d4;strokeColor=#82b366;" parent="1" vertex="1">
          <mxGeometry x="530" y="200" width="30" height="30" as="geometry" />
        </mxCell>
        <mxCell id="J24ZNAqXqzgIBJFLbZun-21" style="edgeStyle=orthogonalEdgeStyle;rounded=0;orthogonalLoop=1;jettySize=auto;html=1;exitX=1;exitY=0.5;exitDx=0;exitDy=0;entryX=0.5;entryY=1;entryDx=0;entryDy=0;" edge="1" parent="1" source="2QfLTyrHY2M2lkCo5Ux--22" target="2QfLTyrHY2M2lkCo5Ux--17">
          <mxGeometry relative="1" as="geometry">
            <Array as="points">
              <mxPoint x="340" y="245" />
              <mxPoint x="340" y="300" />
              <mxPoint x="510" y="300" />
            </Array>
          </mxGeometry>
        </mxCell>
        <mxCell id="J24ZNAqXqzgIBJFLbZun-26" style="edgeStyle=orthogonalEdgeStyle;rounded=0;orthogonalLoop=1;jettySize=auto;html=1;exitX=0;exitY=0.5;exitDx=0;exitDy=0;entryX=1;entryY=0.5;entryDx=0;entryDy=0;" edge="1" parent="1" source="2QfLTyrHY2M2lkCo5Ux--22" target="2QfLTyrHY2M2lkCo5Ux--28">
          <mxGeometry relative="1" as="geometry" />
        </mxCell>
        <mxCell id="2QfLTyrHY2M2lkCo5Ux--22" value="from IH: ssh net3_student11@10.50.29.96 -L 31102:localhost:31101 -NT" style="shape=process;whiteSpace=wrap;html=1;backgroundOutline=1;align=left;" parent="1" vertex="1">
          <mxGeometry x="100" y="215" width="220" height="60" as="geometry" />
        </mxCell>
        <mxCell id="2QfLTyrHY2M2lkCo5Ux--24" value="2" style="ellipse;whiteSpace=wrap;html=1;aspect=fixed;fillColor=#d5e8d4;strokeColor=#82b366;" parent="1" vertex="1">
          <mxGeometry x="90" y="200" width="30" height="30" as="geometry" />
        </mxCell>
        <mxCell id="2QfLTyrHY2M2lkCo5Ux--29" value="&lt;h1&gt;Scenario: Mixed Tunneling&lt;/h1&gt;&lt;span&gt;We can access T4 as an insider (but only via Telnet, not SSH)&lt;/span&gt;&lt;br&gt;&lt;span&gt;We want to access information on TARGET via SSH tunneling&lt;/span&gt;&lt;br&gt;&lt;span&gt;Tools are on out internet host but access comes from T4: Pineland&lt;br&gt;We want to run some scans looking for stuff on the 10.2.0.0/24 network&lt;/span&gt;" style="text;html=1;strokeColor=none;fillColor=none;spacing=5;spacingTop=-20;whiteSpace=wrap;overflow=hidden;rounded=0;" parent="1" vertex="1">
          <mxGeometry x="-510" y="430" width="380" height="120" as="geometry" />
        </mxCell>
        <mxCell id="J24ZNAqXqzgIBJFLbZun-27" style="edgeStyle=orthogonalEdgeStyle;rounded=0;orthogonalLoop=1;jettySize=auto;html=1;exitX=1;exitY=0.5;exitDx=0;exitDy=0;entryX=0.75;entryY=0;entryDx=0;entryDy=0;" edge="1" parent="1" source="2QfLTyrHY2M2lkCo5Ux--31" target="2QfLTyrHY2M2lkCo5Ux--7">
          <mxGeometry relative="1" as="geometry" />
        </mxCell>
        <mxCell id="2QfLTyrHY2M2lkCo5Ux--31" value="from IH: ssh net3_student11@localhost -p 31102 -D 9050 -NT" style="shape=process;whiteSpace=wrap;html=1;backgroundOutline=1;align=left;" parent="1" vertex="1">
          <mxGeometry x="120" y="100" width="220" height="60" as="geometry" />
        </mxCell>
        <mxCell id="2QfLTyrHY2M2lkCo5Ux--39" value="3" style="ellipse;whiteSpace=wrap;html=1;aspect=fixed;fillColor=#d5e8d4;strokeColor=#82b366;" parent="1" vertex="1">
          <mxGeometry x="107" y="86" width="30" height="30" as="geometry" />
        </mxCell>
        <mxCell id="J24ZNAqXqzgIBJFLbZun-11" style="edgeStyle=orthogonalEdgeStyle;rounded=0;orthogonalLoop=1;jettySize=auto;html=1;entryX=0.5;entryY=1;entryDx=0;entryDy=0;" edge="1" parent="1" source="J24ZNAqXqzgIBJFLbZun-6" target="2QfLTyrHY2M2lkCo5Ux--18">
          <mxGeometry relative="1" as="geometry">
            <mxPoint x="1070" y="310" as="targetPoint" />
          </mxGeometry>
        </mxCell>
        <mxCell id="J24ZNAqXqzgIBJFLbZun-29" style="edgeStyle=orthogonalEdgeStyle;rounded=0;orthogonalLoop=1;jettySize=auto;html=1;exitX=0;exitY=0.75;exitDx=0;exitDy=0;entryX=0.75;entryY=1;entryDx=0;entryDy=0;" edge="1" parent="1" source="J24ZNAqXqzgIBJFLbZun-6" target="J24ZNAqXqzgIBJFLbZun-12">
          <mxGeometry relative="1" as="geometry" />
        </mxCell>
        <mxCell id="J24ZNAqXqzgIBJFLbZun-6" value="from IH:&amp;nbsp;ssh net3_student11@localhost -p 31102 -L 31103:10.2.0.3:22 -NT" style="shape=process;whiteSpace=wrap;html=1;backgroundOutline=1;align=left;" vertex="1" parent="1">
          <mxGeometry x="170" y="330" width="290" height="60" as="geometry" />
        </mxCell>
        <mxCell id="J24ZNAqXqzgIBJFLbZun-56" style="edgeStyle=orthogonalEdgeStyle;rounded=0;orthogonalLoop=1;jettySize=auto;html=1;exitX=0.25;exitY=1;exitDx=0;exitDy=0;entryX=0;entryY=0.5;entryDx=0;entryDy=0;" edge="1" parent="1" source="J24ZNAqXqzgIBJFLbZun-12" target="J24ZNAqXqzgIBJFLbZun-55">
          <mxGeometry relative="1" as="geometry">
            <Array as="points">
              <mxPoint x="-40" y="290" />
              <mxPoint x="-40" y="570" />
            </Array>
          </mxGeometry>
        </mxCell>
        <mxCell id="J24ZNAqXqzgIBJFLbZun-62" style="edgeStyle=orthogonalEdgeStyle;rounded=0;orthogonalLoop=1;jettySize=auto;html=1;exitX=0;exitY=1;exitDx=0;exitDy=0;entryX=0;entryY=0.5;entryDx=0;entryDy=0;" edge="1" parent="1" source="J24ZNAqXqzgIBJFLbZun-12" target="J24ZNAqXqzgIBJFLbZun-60">
          <mxGeometry relative="1" as="geometry">
            <Array as="points">
              <mxPoint x="-90" y="290" />
              <mxPoint x="-90" y="640" />
            </Array>
          </mxGeometry>
        </mxCell>
        <mxCell id="J24ZNAqXqzgIBJFLbZun-12" value="31103" style="whiteSpace=wrap;html=1;aspect=fixed;fillColor=#ffe6cc;strokeColor=#d79b00;" vertex="1" parent="1">
          <mxGeometry x="10" y="250" width="40" height="40" as="geometry" />
        </mxCell>
        <mxCell id="J24ZNAqXqzgIBJFLbZun-15" value="6" style="ellipse;whiteSpace=wrap;html=1;aspect=fixed;fillColor=#d5e8d4;strokeColor=#82b366;" vertex="1" parent="1">
          <mxGeometry x="160" y="320" width="30" height="30" as="geometry" />
        </mxCell>
        <mxCell id="J24ZNAqXqzgIBJFLbZun-33" style="edgeStyle=orthogonalEdgeStyle;rounded=0;orthogonalLoop=1;jettySize=auto;html=1;exitX=1;exitY=0.5;exitDx=0;exitDy=0;entryX=0.5;entryY=1;entryDx=0;entryDy=0;" edge="1" parent="1" source="J24ZNAqXqzgIBJFLbZun-16" target="J24ZNAqXqzgIBJFLbZun-32">
          <mxGeometry relative="1" as="geometry" />
        </mxCell>
        <mxCell id="J24ZNAqXqzgIBJFLbZun-16" value="from IH:&amp;nbsp;ssh net3_student11@localhost -p 31103 -L 31104:10.2.0.3:22" style="shape=process;whiteSpace=wrap;html=1;backgroundOutline=1;align=left;" vertex="1" parent="1">
          <mxGeometry x="170" y="410" width="290" height="60" as="geometry" />
        </mxCell>
        <mxCell id="J24ZNAqXqzgIBJFLbZun-18" value="7" style="ellipse;whiteSpace=wrap;html=1;aspect=fixed;fillColor=#d5e8d4;strokeColor=#82b366;" vertex="1" parent="1">
          <mxGeometry x="160" y="400" width="30" height="30" as="geometry" />
        </mxCell>
        <mxCell id="J24ZNAqXqzgIBJFLbZun-25" style="edgeStyle=orthogonalEdgeStyle;rounded=0;orthogonalLoop=1;jettySize=auto;html=1;exitX=0.5;exitY=0;exitDx=0;exitDy=0;entryX=0;entryY=0.5;entryDx=0;entryDy=0;" edge="1" parent="1" source="2QfLTyrHY2M2lkCo5Ux--28" target="2QfLTyrHY2M2lkCo5Ux--31">
          <mxGeometry relative="1" as="geometry" />
        </mxCell>
        <mxCell id="2QfLTyrHY2M2lkCo5Ux--28" value="31102" style="whiteSpace=wrap;html=1;aspect=fixed;fillColor=#ffe6cc;strokeColor=#d79b00;" parent="1" vertex="1">
          <mxGeometry x="10" y="200" width="40" height="40" as="geometry" />
        </mxCell>
        <mxCell id="2QfLTyrHY2M2lkCo5Ux--3" value="T3: Atropia&lt;br&gt;Internal: 10.3.0.10&lt;br&gt;External: 10.50.29.96" style="rounded=0;whiteSpace=wrap;html=1;fillColor=#f8cecc;strokeColor=#b85450;" parent="1" vertex="1">
          <mxGeometry x="350" y="210" width="150" height="70" as="geometry" />
        </mxCell>
        <mxCell id="2QfLTyrHY2M2lkCo5Ux--17" value="31101" style="whiteSpace=wrap;html=1;aspect=fixed;fillColor=#ffe6cc;strokeColor=#d79b00;" parent="1" vertex="1">
          <mxGeometry x="490" y="225" width="40" height="40" as="geometry" />
        </mxCell>
        <mxCell id="J24ZNAqXqzgIBJFLbZun-32" value="22" style="whiteSpace=wrap;html=1;aspect=fixed;fillColor=#ffe6cc;strokeColor=#d79b00;" vertex="1" parent="1">
          <mxGeometry x="1000" y="265" width="40" height="40" as="geometry" />
        </mxCell>
        <mxCell id="J24ZNAqXqzgIBJFLbZun-45" style="edgeStyle=orthogonalEdgeStyle;rounded=0;orthogonalLoop=1;jettySize=auto;html=1;exitX=1;exitY=0.5;exitDx=0;exitDy=0;entryX=0.75;entryY=0;entryDx=0;entryDy=0;" edge="1" parent="1" source="J24ZNAqXqzgIBJFLbZun-36" target="2QfLTyrHY2M2lkCo5Ux--7">
          <mxGeometry relative="1" as="geometry" />
        </mxCell>
        <mxCell id="J24ZNAqXqzgIBJFLbZun-36" value="ssh net3_student11@10.50.29.96 -D 9050 -NT" style="shape=process;whiteSpace=wrap;html=1;backgroundOutline=1;align=left;" vertex="1" parent="1">
          <mxGeometry x="107" y="-30" width="250" height="50" as="geometry" />
        </mxCell>
        <mxCell id="J24ZNAqXqzgIBJFLbZun-37" value="" style="verticalLabelPosition=bottom;verticalAlign=top;html=1;shape=mxgraph.basic.x;fillColor=#a20025;fontColor=#ffffff;strokeColor=#6F0000;" vertex="1" parent="1">
          <mxGeometry x="310" y="70" width="45" height="40" as="geometry" />
        </mxCell>
        <mxCell id="J24ZNAqXqzgIBJFLbZun-3" value="5" style="ellipse;whiteSpace=wrap;html=1;aspect=fixed;fillColor=#d5e8d4;strokeColor=#82b366;" vertex="1" parent="1">
          <mxGeometry x="340" y="56" width="30" height="30" as="geometry" />
        </mxCell>
        <mxCell id="J24ZNAqXqzgIBJFLbZun-40" value="" style="verticalLabelPosition=bottom;verticalAlign=top;html=1;shape=mxgraph.basic.x;fillColor=#a20025;fontColor=#ffffff;strokeColor=#6F0000;" vertex="1" parent="1">
          <mxGeometry x="440" y="315" width="45" height="40" as="geometry" />
        </mxCell>
        <mxCell id="J24ZNAqXqzgIBJFLbZun-41" value="9" style="ellipse;whiteSpace=wrap;html=1;aspect=fixed;fillColor=#d5e8d4;strokeColor=#82b366;" vertex="1" parent="1">
          <mxGeometry x="470" y="301" width="30" height="30" as="geometry" />
        </mxCell>
        <mxCell id="J24ZNAqXqzgIBJFLbZun-42" value="" style="verticalLabelPosition=bottom;verticalAlign=top;html=1;shape=mxgraph.basic.x;fillColor=#a20025;fontColor=#ffffff;strokeColor=#6F0000;" vertex="1" parent="1">
          <mxGeometry x="440" y="390" width="45" height="40" as="geometry" />
        </mxCell>
        <mxCell id="J24ZNAqXqzgIBJFLbZun-43" value="10" style="ellipse;whiteSpace=wrap;html=1;aspect=fixed;fillColor=#d5e8d4;strokeColor=#82b366;" vertex="1" parent="1">
          <mxGeometry x="470" y="376" width="30" height="30" as="geometry" />
        </mxCell>
        <mxCell id="J24ZNAqXqzgIBJFLbZun-46" value="11" style="ellipse;whiteSpace=wrap;html=1;aspect=fixed;fillColor=#d5e8d4;strokeColor=#82b366;" vertex="1" parent="1">
          <mxGeometry x="100" y="-40" width="30" height="30" as="geometry" />
        </mxCell>
        <mxCell id="J24ZNAqXqzgIBJFLbZun-52" value="BAJA REPUBLIC PIVOT:&lt;br&gt;10.4.0.1&lt;br&gt;Open Ports: 22" style="rounded=0;whiteSpace=wrap;html=1;fillColor=#fff2cc;strokeColor=#d6b656;" vertex="1" parent="1">
          <mxGeometry x="1020" y="580" width="120" height="60" as="geometry" />
        </mxCell>
        <mxCell id="J24ZNAqXqzgIBJFLbZun-53" value="" style="verticalLabelPosition=bottom;verticalAlign=top;html=1;shape=mxgraph.basic.x;fillColor=#a20025;fontColor=#ffffff;strokeColor=#6F0000;" vertex="1" parent="1">
          <mxGeometry x="285" y="-62" width="45" height="40" as="geometry" />
        </mxCell>
        <mxCell id="J24ZNAqXqzgIBJFLbZun-54" value="13" style="ellipse;whiteSpace=wrap;html=1;aspect=fixed;fillColor=#d5e8d4;strokeColor=#82b366;" vertex="1" parent="1">
          <mxGeometry x="315" y="-76" width="30" height="30" as="geometry" />
        </mxCell>
        <mxCell id="J24ZNAqXqzgIBJFLbZun-59" style="edgeStyle=orthogonalEdgeStyle;rounded=0;orthogonalLoop=1;jettySize=auto;html=1;exitX=1;exitY=0.5;exitDx=0;exitDy=0;entryX=0.75;entryY=1;entryDx=0;entryDy=0;" edge="1" parent="1" source="J24ZNAqXqzgIBJFLbZun-55" target="2QfLTyrHY2M2lkCo5Ux--18">
          <mxGeometry relative="1" as="geometry" />
        </mxCell>
        <mxCell id="J24ZNAqXqzgIBJFLbZun-55" value="ssh net3_student11@10.50.29.96 -L 31103:10.4.0.1:22 -NT" style="shape=process;whiteSpace=wrap;html=1;backgroundOutline=1;align=left;" vertex="1" parent="1">
          <mxGeometry x="30" y="540" width="230" height="60" as="geometry" />
        </mxCell>
        <mxCell id="J24ZNAqXqzgIBJFLbZun-57" value="14" style="ellipse;whiteSpace=wrap;html=1;aspect=fixed;fillColor=#d5e8d4;strokeColor=#82b366;" vertex="1" parent="1">
          <mxGeometry x="20" y="530" width="30" height="30" as="geometry" />
        </mxCell>
        <mxCell id="J24ZNAqXqzgIBJFLbZun-63" style="edgeStyle=orthogonalEdgeStyle;rounded=0;orthogonalLoop=1;jettySize=auto;html=1;exitX=1;exitY=0.5;exitDx=0;exitDy=0;entryX=0;entryY=0.5;entryDx=0;entryDy=0;" edge="1" parent="1" source="J24ZNAqXqzgIBJFLbZun-60" target="J24ZNAqXqzgIBJFLbZun-64">
          <mxGeometry relative="1" as="geometry" />
        </mxCell>
        <mxCell id="J24ZNAqXqzgIBJFLbZun-60" value="ssh net3_student11@localhost -p 31103 -D 9050 -NT" style="shape=process;whiteSpace=wrap;html=1;backgroundOutline=1;align=left;" vertex="1" parent="1">
          <mxGeometry x="30" y="610" width="230" height="60" as="geometry" />
        </mxCell>
        <mxCell id="J24ZNAqXqzgIBJFLbZun-61" value="15" style="ellipse;whiteSpace=wrap;html=1;aspect=fixed;fillColor=#d5e8d4;strokeColor=#82b366;" vertex="1" parent="1">
          <mxGeometry x="20" y="610" width="30" height="30" as="geometry" />
        </mxCell>
        <mxCell id="J24ZNAqXqzgIBJFLbZun-64" value="22" style="whiteSpace=wrap;html=1;aspect=fixed;fillColor=#ffe6cc;strokeColor=#d79b00;" vertex="1" parent="1">
          <mxGeometry x="990" y="620" width="40" height="40" as="geometry" />
        </mxCell>
        <mxCell id="J24ZNAqXqzgIBJFLbZun-65" value="MOJAVE FTP SEVER:&lt;br&gt;10.5.0.1&lt;br&gt;Open Ports: 21 (ftp), 80" style="rounded=0;whiteSpace=wrap;html=1;fillColor=#fff2cc;strokeColor=#d6b656;" vertex="1" parent="1">
          <mxGeometry x="1000" y="703" width="170" height="60" as="geometry" />
        </mxCell>
        <mxCell id="J24ZNAqXqzgIBJFLbZun-69" value="from IH: proxychains wget -r ftp://10.5.0.1&lt;br&gt;&lt;br&gt;cat 10.5.0.1/flag.txt" style="shape=step;perimeter=stepPerimeter;whiteSpace=wrap;html=1;fixedSize=1;align=center;fillColor=#f5f5f5;fontColor=#333333;strokeColor=#666666;" vertex="1" parent="1">
          <mxGeometry x="35" y="870" width="220" height="60" as="geometry" />
        </mxCell>
        <mxCell id="J24ZNAqXqzgIBJFLbZun-73" value="&lt;div&gt;from IH: ssh net3_student11@localhost -p 31103 -L 31104:10.2.0.3:22&lt;/div&gt;&lt;div&gt;&lt;br&gt;&lt;/div&gt;&lt;div&gt;cat /usr/share/cctc/hint.txt&lt;/div&gt;&lt;div&gt;Look at 10 4.0.0 and 10.5.0.0&lt;/div&gt;" style="shape=step;perimeter=stepPerimeter;whiteSpace=wrap;html=1;fixedSize=1;align=center;fillColor=#f5f5f5;fontColor=#333333;strokeColor=#666666;" vertex="1" parent="1">
          <mxGeometry x="500" y="460" width="260" height="70" as="geometry" />
        </mxCell>
        <mxCell id="J24ZNAqXqzgIBJFLbZun-35" value="8" style="ellipse;whiteSpace=wrap;html=1;aspect=fixed;fillColor=#d5e8d4;strokeColor=#82b366;" vertex="1" parent="1">
          <mxGeometry x="485" y="450" width="30" height="30" as="geometry" />
        </mxCell>
        <mxCell id="J24ZNAqXqzgIBJFLbZun-75" value="&lt;span style=&quot;color: rgb(0 , 0 , 0) ; text-align: left&quot;&gt;from IH: proxychains ./scan.sh&lt;/span&gt;&lt;br style=&quot;color: rgb(0 , 0 , 0) ; text-align: left&quot;&gt;&lt;span style=&quot;color: rgb(0 , 0 , 0) ; text-align: left&quot;&gt;find: 10.2.0.1, .2, .3&lt;/span&gt;" style="shape=step;perimeter=stepPerimeter;whiteSpace=wrap;html=1;fixedSize=1;align=center;fillColor=#f5f5f5;fontColor=#333333;strokeColor=#666666;" vertex="1" parent="1">
          <mxGeometry x="440" y="60" width="260" height="50" as="geometry" />
        </mxCell>
        <mxCell id="J24ZNAqXqzgIBJFLbZun-76" value="4" style="ellipse;whiteSpace=wrap;html=1;aspect=fixed;fillColor=#d5e8d4;strokeColor=#82b366;" vertex="1" parent="1">
          <mxGeometry x="425" y="50" width="30" height="30" as="geometry" />
        </mxCell>
        <mxCell id="J24ZNAqXqzgIBJFLbZun-77" value="&lt;span style=&quot;color: rgb(0 , 0 , 0) ; text-align: left&quot;&gt;from IH: proxychains ./scan.sh&lt;/span&gt;&lt;br style=&quot;color: rgb(0 , 0 , 0) ; text-align: left&quot;&gt;&lt;span style=&quot;color: rgb(0 , 0 , 0) ; text-align: left&quot;&gt;find: 10.4.0.1&lt;/span&gt;" style="shape=step;perimeter=stepPerimeter;whiteSpace=wrap;html=1;fixedSize=1;align=center;fillColor=#f5f5f5;fontColor=#333333;strokeColor=#666666;" vertex="1" parent="1">
          <mxGeometry x="410" y="-72" width="260" height="50" as="geometry" />
        </mxCell>
        <mxCell id="J24ZNAqXqzgIBJFLbZun-78" value="12" style="ellipse;whiteSpace=wrap;html=1;aspect=fixed;fillColor=#d5e8d4;strokeColor=#82b366;" vertex="1" parent="1">
          <mxGeometry x="395" y="-82" width="30" height="30" as="geometry" />
        </mxCell>
        <mxCell id="J24ZNAqXqzgIBJFLbZun-79" value="PARUMPHIA FTP SERVER:&lt;br&gt;10.5.0.57&lt;br&gt;Open Ports: 21 (ftp), 80" style="rounded=0;whiteSpace=wrap;html=1;fillColor=#fff2cc;strokeColor=#d6b656;" vertex="1" parent="1">
          <mxGeometry x="1000" y="790" width="170" height="60" as="geometry" />
        </mxCell>
        <mxCell id="J24ZNAqXqzgIBJFLbZun-80" value="re-run 15 without NT and&lt;br&gt;find / -iname hint* 2&amp;gt;/dev/null&lt;br&gt;cat /usr/share/cctc/hint.txt&lt;br&gt;&lt;br&gt;This device can access another net - 5?" style="shape=step;perimeter=stepPerimeter;whiteSpace=wrap;html=1;fixedSize=1;align=center;fillColor=#f5f5f5;fontColor=#333333;strokeColor=#666666;" vertex="1" parent="1">
          <mxGeometry x="28.5" y="696" width="249" height="74" as="geometry" />
        </mxCell>
        <mxCell id="J24ZNAqXqzgIBJFLbZun-81" value="17" style="ellipse;whiteSpace=wrap;html=1;aspect=fixed;fillColor=#d5e8d4;strokeColor=#82b366;" vertex="1" parent="1">
          <mxGeometry x="12.5" y="680" width="30" height="30" as="geometry" />
        </mxCell>
        <mxCell id="J24ZNAqXqzgIBJFLbZun-82" value="&lt;span&gt;from IH: proxychains ./scan.sh&lt;/span&gt;&lt;br&gt;&lt;span&gt;find: 10.5.0.1, .57&lt;/span&gt;" style="shape=step;perimeter=stepPerimeter;whiteSpace=wrap;html=1;fixedSize=1;align=center;fillColor=#f5f5f5;fontColor=#333333;strokeColor=#666666;" vertex="1" parent="1">
          <mxGeometry x="35" y="810" width="220" height="40" as="geometry" />
        </mxCell>
        <mxCell id="J24ZNAqXqzgIBJFLbZun-83" value="19" style="ellipse;whiteSpace=wrap;html=1;aspect=fixed;fillColor=#d5e8d4;strokeColor=#82b366;" vertex="1" parent="1">
          <mxGeometry x="20" y="860" width="30" height="30" as="geometry" />
        </mxCell>
        <mxCell id="J24ZNAqXqzgIBJFLbZun-88" value="from IH: proxychains wget -r ftp://10.5.0.57&lt;br&gt;&lt;br&gt;cat 10.5.0.57/flag.txt" style="shape=step;perimeter=stepPerimeter;whiteSpace=wrap;html=1;fixedSize=1;align=center;fillColor=#f5f5f5;fontColor=#333333;strokeColor=#666666;" vertex="1" parent="1">
          <mxGeometry x="35" y="956" width="220" height="64" as="geometry" />
        </mxCell>
        <mxCell id="J24ZNAqXqzgIBJFLbZun-89" value="20" style="ellipse;whiteSpace=wrap;html=1;aspect=fixed;fillColor=#d5e8d4;strokeColor=#82b366;" vertex="1" parent="1">
          <mxGeometry x="20" y="940" width="30" height="30" as="geometry" />
        </mxCell>
        <mxCell id="J24ZNAqXqzgIBJFLbZun-67" value="18" style="ellipse;whiteSpace=wrap;html=1;aspect=fixed;fillColor=#d5e8d4;strokeColor=#82b366;" vertex="1" parent="1">
          <mxGeometry x="20.5" y="790" width="30" height="30" as="geometry" />
        </mxCell>
        <mxCell id="J24ZNAqXqzgIBJFLbZun-90" value="from IH: proxychains wget -r http://10.5.0.1&lt;br&gt;&lt;br&gt;cat 10.5.0.1/index.html" style="shape=step;perimeter=stepPerimeter;whiteSpace=wrap;html=1;fixedSize=1;align=center;fillColor=#f5f5f5;fontColor=#333333;strokeColor=#666666;" vertex="1" parent="1">
          <mxGeometry x="292.5" y="870" width="220" height="60" as="geometry" />
        </mxCell>
        <mxCell id="J24ZNAqXqzgIBJFLbZun-91" value="21" style="ellipse;whiteSpace=wrap;html=1;aspect=fixed;fillColor=#d5e8d4;strokeColor=#82b366;" vertex="1" parent="1">
          <mxGeometry x="277.5" y="860" width="30" height="30" as="geometry" />
        </mxCell>
        <mxCell id="J24ZNAqXqzgIBJFLbZun-92" value="from IH: proxychains wget -r ftp://10.5.0.57&lt;br&gt;&lt;br&gt;cat 10.5.0.57/index.html" style="shape=step;perimeter=stepPerimeter;whiteSpace=wrap;html=1;fixedSize=1;align=center;fillColor=#f5f5f5;fontColor=#333333;strokeColor=#666666;" vertex="1" parent="1">
          <mxGeometry x="292.5" y="956" width="220" height="64" as="geometry" />
        </mxCell>
        <mxCell id="J24ZNAqXqzgIBJFLbZun-93" value="22" style="ellipse;whiteSpace=wrap;html=1;aspect=fixed;fillColor=#d5e8d4;strokeColor=#82b366;" vertex="1" parent="1">
          <mxGeometry x="277.5" y="940" width="30" height="30" as="geometry" />
        </mxCell>
      </root>
    </mxGraphModel>
  </diagram>
</mxfile>
